<svg width="200" height="200" viewBox="0 0 200 200" fill="none" xmlns="http://www.w3.org/2000/svg">
<rect width="200" height="200" rx="10" fill="#3C3443"/>
<ellipse cx="101.019" cy="143.203" rx="18.0233" ry="20.7541" transform="rotate(0.136833 101.019 143.203)" fill="#8449BE"/>
<ellipse cx="82.4806" cy="130.051" rx="18.0233" ry="20.7541" transform="rotate(0.136833 82.4806 130.051)" fill="#B267FE"/>
<ellipse cx="118.527" cy="130.137" rx="18.0233" ry="20.7541" transform="rotate(0.136833 118.527 130.137)" fill="#BD86F3"/>
<ellipse cx="71.5938" cy="114.732" rx="18.0233" ry="20.7541" transform="rotate(0.136833 71.5938 114.732)" fill="#8449BE"/>
<ellipse cx="130.584" cy="112.688" rx="18.0233" ry="20.7541" transform="rotate(0.136833 130.584 112.688)" fill="#8449BE"/>
<ellipse cx="101.071" cy="121.357" rx="18.0233" ry="20.7541" transform="rotate(0.136833 101.071 121.357)" fill="#9D46F5"/>
<ellipse cx="139.38" cy="88.6783" rx="18.0233" ry="20.7541" transform="rotate(0.136833 139.38 88.6783)" fill="#BD86F3"/>
<ellipse cx="60.7333" cy="88.4904" rx="18.0233" ry="20.7541" transform="rotate(0.136833 60.7333 88.4904)" fill="#B267FE"/>
<ellipse cx="82.5484" cy="101.65" rx="18.0233" ry="20.7541" transform="rotate(0.136833 82.5484 101.65)" fill="#BD86F3"/>
<ellipse cx="87.558" cy="67.7426" rx="18.0233" ry="20.7541" transform="rotate(0.136833 87.558 67.7426)" fill="#BD86F3"/>
<ellipse cx="117.505" cy="100.642" rx="18.0233" ry="20.7541" transform="rotate(0.136833 117.505 100.642)" fill="#B267FE"/>
<ellipse cx="114.478" cy="67.7426" rx="18.0233" ry="20.7541" transform="rotate(0.136833 114.478 67.7426)" fill="#B267FE"/>
<ellipse cx="59.9264" cy="67.3637" rx="18.0233" ry="20.7541" transform="rotate(29.6243 59.9264 67.3637)" fill="#8449BE"/>
<ellipse cx="139.146" cy="64.5857" rx="18.0233" ry="20.7541" transform="rotate(-33.2501 139.146 64.5857)" fill="#8449BE"/>
<ellipse cx="127.391" cy="77.7264" rx="18.0233" ry="20.7541" transform="rotate(-10.7605 127.391 77.7264)" fill="#9D46F5"/>
<ellipse cx="99.3083" cy="100.703" rx="18.0233" ry="20.7541" transform="rotate(-10.7605 99.3083 100.703)" fill="#9D46F5"/>
<ellipse cx="70.8256" cy="77.2767" rx="18.0233" ry="20.7541" transform="rotate(10.7415 70.8256 77.2767)" fill="#9D46F5"/>
<ellipse cx="100.075" cy="80.9381" rx="18.0233" ry="20.7541" transform="rotate(0.136833 100.075 80.9381)" fill="#8449BE"/>
</svg>
