<svg width="183" height="163" viewBox="0 0 183 163" fill="none" xmlns="http://www.w3.org/2000/svg">
<ellipse cx="93.5475" cy="92.9114" rx="15.4762" ry="17.8211" transform="rotate(0.136833 93.5475 92.9114)" fill="#8449BE"/>
<ellipse cx="77.6292" cy="81.618" rx="15.4762" ry="17.8211" transform="rotate(0.136833 77.6292 81.618)" fill="#B267FE"/>
<ellipse cx="108.582" cy="81.6919" rx="15.4762" ry="17.8211" transform="rotate(0.136833 108.582 81.6919)" fill="#BD86F3"/>
<ellipse cx="68.281" cy="68.4642" rx="15.4762" ry="17.8211" transform="rotate(0.136833 68.281 68.4642)" fill="#8449BE"/>
<ellipse cx="118.935" cy="66.7093" rx="15.4762" ry="17.8211" transform="rotate(0.136833 118.935 66.7093)" fill="#8449BE"/>
<ellipse cx="93.5923" cy="74.1524" rx="15.4762" ry="17.8211" transform="rotate(0.136833 93.5923 74.1524)" fill="#9D46F5"/>
<ellipse cx="126.488" cy="46.0923" rx="15.4762" ry="17.8211" transform="rotate(0.136833 126.488 46.0923)" fill="#BD86F3"/>
<ellipse cx="58.9553" cy="45.9311" rx="15.4762" ry="17.8211" transform="rotate(0.136833 58.9553 45.9311)" fill="#B267FE"/>
<ellipse cx="77.6875" cy="57.2313" rx="15.4762" ry="17.8211" transform="rotate(0.136833 77.6875 57.2313)" fill="#BD86F3"/>
<ellipse cx="81.989" cy="28.1154" rx="15.4762" ry="17.8211" transform="rotate(0.136833 81.989 28.1154)" fill="#BD86F3"/>
<ellipse cx="107.704" cy="56.365" rx="15.4762" ry="17.8211" transform="rotate(0.136833 107.704 56.365)" fill="#B267FE"/>
<ellipse cx="105.104" cy="28.1154" rx="15.4762" ry="17.8211" transform="rotate(0.136833 105.104 28.1154)" fill="#B267FE"/>
<ellipse cx="58.2625" cy="27.79" rx="15.4762" ry="17.8211" transform="rotate(29.6243 58.2625 27.79)" fill="#8449BE"/>
<ellipse cx="126.286" cy="25.4046" rx="15.4762" ry="17.8211" transform="rotate(-33.2501 126.286 25.4046)" fill="#8449BE"/>
<ellipse cx="116.193" cy="36.6882" rx="15.4762" ry="17.8211" transform="rotate(-10.7605 116.193 36.6882)" fill="#9D46F5"/>
<ellipse cx="92.0788" cy="56.4176" rx="15.4762" ry="17.8211" transform="rotate(-10.7605 92.0788 56.4176)" fill="#9D46F5"/>
<ellipse cx="67.6213" cy="36.3021" rx="15.4762" ry="17.8211" transform="rotate(10.7415 67.6213 36.3021)" fill="#9D46F5"/>
<ellipse cx="92.7372" cy="39.446" rx="15.4762" ry="17.8211" transform="rotate(0.136833 92.7372 39.446)" fill="#8449BE"/>
<path d="M24.912 151.336C24.6 151.672 24.108 152.02 23.436 152.38C22.764 152.716 21.984 153.028 21.096 153.316C20.232 153.604 19.344 153.832 18.432 154C17.52 154.192 16.656 154.288 15.84 154.288C12.984 154.288 10.5 153.736 8.388 152.632C6.276 151.528 4.644 150.016 3.492 148.096C2.364 146.176 1.8 143.98 1.8 141.508C1.8 139.084 2.16 136.984 2.88 135.208C3.624 133.408 4.62 131.92 5.868 130.744C7.14 129.544 8.592 128.656 10.224 128.08C11.88 127.504 13.608 127.216 15.408 127.216C17.112 127.216 18.672 127.408 20.088 127.792C21.504 128.152 22.704 128.608 23.688 129.16L21.996 134.02C21.564 133.78 20.988 133.54 20.268 133.3C19.548 133.06 18.816 132.868 18.072 132.724C17.328 132.556 16.668 132.472 16.092 132.472C13.236 132.472 11.04 133.192 9.504 134.632C7.968 136.048 7.2 138.184 7.2 141.04C7.2 142.696 7.572 144.124 8.316 145.324C9.06 146.524 10.092 147.448 11.412 148.096C12.756 148.744 14.28 149.068 15.984 149.068C16.728 149.068 17.412 149.02 18.036 148.924C18.66 148.804 19.188 148.624 19.62 148.384V145.18H15.048V140.14H24.912V151.336ZM28.7899 145.936C28.7899 144.328 29.1619 142.888 29.9059 141.616C30.6739 140.344 31.7419 139.348 33.1099 138.628C34.4779 137.884 36.0499 137.512 37.8259 137.512C39.6259 137.512 41.1859 137.884 42.5059 138.628C43.8259 139.348 44.8339 140.344 45.5299 141.616C46.2499 142.888 46.6099 144.328 46.6099 145.936C46.6099 147.544 46.2499 148.996 45.5299 150.292C44.8339 151.564 43.8259 152.572 42.5059 153.316C41.1859 154.06 39.6019 154.432 37.7539 154.432C36.0259 154.432 34.4779 154.096 33.1099 153.424C31.7659 152.752 30.7099 151.78 29.9419 150.508C29.1739 149.236 28.7899 147.712 28.7899 145.936ZM33.8659 145.972C33.8659 147.22 34.2259 148.264 34.9459 149.104C35.6659 149.92 36.5779 150.328 37.6819 150.328C38.8579 150.328 39.7939 149.92 40.4899 149.104C41.1859 148.264 41.5339 147.22 41.5339 145.972C41.5339 144.724 41.1859 143.692 40.4899 142.876C39.7939 142.036 38.8579 141.616 37.6819 141.616C36.5779 141.616 35.6659 142.036 34.9459 142.876C34.2259 143.692 33.8659 144.724 33.8659 145.972ZM49.3563 145.936C49.3563 144.328 49.7283 142.888 50.4723 141.616C51.2403 140.344 52.3083 139.348 53.6763 138.628C55.0443 137.884 56.6163 137.512 58.3923 137.512C60.1923 137.512 61.7523 137.884 63.0723 138.628C64.3923 139.348 65.4003 140.344 66.0963 141.616C66.8163 142.888 67.1763 144.328 67.1763 145.936C67.1763 147.544 66.8163 148.996 66.0963 150.292C65.4003 151.564 64.3923 152.572 63.0723 153.316C61.7523 154.06 60.1683 154.432 58.3203 154.432C56.5923 154.432 55.0443 154.096 53.6763 153.424C52.3323 152.752 51.2763 151.78 50.5083 150.508C49.7403 149.236 49.3563 147.712 49.3563 145.936ZM54.4323 145.972C54.4323 147.22 54.7923 148.264 55.5123 149.104C56.2323 149.92 57.1443 150.328 58.2483 150.328C59.4243 150.328 60.3603 149.92 61.0563 149.104C61.7523 148.264 62.1003 147.22 62.1003 145.972C62.1003 144.724 61.7523 143.692 61.0563 142.876C60.3603 142.036 59.4243 141.616 58.2483 141.616C57.1443 141.616 56.2323 142.036 55.5123 142.876C54.7923 143.692 54.4323 144.724 54.4323 145.972ZM77.5547 154.432C76.0907 154.432 74.7827 154.096 73.6307 153.424C72.4787 152.728 71.5667 151.732 70.8947 150.436C70.2467 149.14 69.9227 147.604 69.9227 145.828C69.9227 144.052 70.2827 142.54 71.0027 141.292C71.7227 140.044 72.7067 139.096 73.9547 138.448C75.2027 137.8 76.6187 137.476 78.2027 137.476C79.2107 137.476 80.1707 137.632 81.0827 137.944C82.0187 138.256 82.7987 138.736 83.4227 139.384V125.596H88.4267V154H83.3867V152.344C82.6187 152.944 81.7547 153.448 80.7947 153.856C79.8347 154.24 78.7547 154.432 77.5547 154.432ZM79.2107 150.184C80.2187 150.184 81.0587 149.992 81.7307 149.608C82.4027 149.2 82.9547 148.6 83.3867 147.808V143.956C83.0987 143.188 82.5827 142.576 81.8387 142.12C81.0947 141.664 80.2187 141.436 79.2107 141.436C78.4667 141.436 77.7707 141.628 77.1227 142.012C76.4987 142.372 75.9947 142.876 75.6107 143.524C75.2267 144.172 75.0347 144.916 75.0347 145.756C75.0347 146.596 75.2267 147.352 75.6107 148.024C75.9947 148.696 76.4987 149.224 77.1227 149.608C77.7707 149.992 78.4667 150.184 79.2107 150.184ZM103.944 154.432C102.744 154.432 101.712 154.252 100.848 153.892C100.008 153.532 99.2755 153.04 98.6515 152.416V154H93.6115V125.596H98.6155V139.348C99.2395 138.82 100.068 138.376 101.1 138.016C102.132 137.656 103.308 137.476 104.628 137.476C105.996 137.476 107.244 137.8 108.372 138.448C109.5 139.096 110.4 140.044 111.072 141.292C111.768 142.516 112.116 144.016 112.116 145.792C112.116 147.568 111.732 149.104 110.964 150.4C110.22 151.696 109.224 152.692 107.976 153.388C106.728 154.084 105.384 154.432 103.944 154.432ZM102.828 150.184C103.572 150.184 104.256 149.992 104.88 149.608C105.528 149.224 106.044 148.696 106.428 148.024C106.812 147.352 107.004 146.596 107.004 145.756C107.004 144.916 106.812 144.172 106.428 143.524C106.044 142.876 105.528 142.372 104.88 142.012C104.256 141.628 103.572 141.436 102.828 141.436C101.844 141.436 100.98 141.664 100.236 142.12C99.4915 142.576 98.9635 143.188 98.6515 143.956V147.808C99.5155 149.392 100.908 150.184 102.828 150.184ZM123.816 154.432C121.896 154.432 120.264 154.072 118.92 153.352C117.6 152.632 116.592 151.636 115.896 150.364C115.2 149.092 114.852 147.628 114.852 145.972C114.852 144.388 115.26 142.96 116.076 141.688C116.892 140.416 117.984 139.408 119.352 138.664C120.72 137.896 122.244 137.512 123.924 137.512C126.18 137.512 128.028 138.172 129.468 139.492C130.932 140.788 131.88 142.672 132.312 145.144L120.792 148.816C121.56 149.704 122.604 150.148 123.924 150.148C124.476 150.148 125.004 150.052 125.508 149.86C126.036 149.668 126.552 149.416 127.056 149.104L129.288 152.848C128.448 153.328 127.536 153.712 126.552 154C125.592 154.288 124.68 154.432 123.816 154.432ZM119.82 145.684C119.82 145.804 119.82 145.912 119.82 146.008L126.732 143.668C126.516 143.068 126.168 142.552 125.688 142.12C125.208 141.664 124.488 141.436 123.528 141.436C122.4 141.436 121.5 141.82 120.828 142.588C120.156 143.356 119.82 144.388 119.82 145.684ZM140.511 138.268L140.907 141.868C141.363 140.956 141.987 140.176 142.779 139.528C143.571 138.856 144.351 138.352 145.119 138.016C145.887 137.656 146.475 137.476 146.883 137.476L146.631 142.516C145.455 142.372 144.447 142.564 143.607 143.092C142.767 143.62 142.119 144.316 141.663 145.18C141.207 146.044 140.979 146.932 140.979 147.844V154H135.975V138.268H140.511ZM155.276 138.268L155.672 141.868C156.128 140.956 156.752 140.176 157.544 139.528C158.336 138.856 159.116 138.352 159.884 138.016C160.652 137.656 161.24 137.476 161.648 137.476L161.396 142.516C160.22 142.372 159.212 142.564 158.372 143.092C157.532 143.62 156.884 144.316 156.428 145.18C155.972 146.044 155.744 146.932 155.744 147.844V154H150.74V138.268H155.276ZM166.766 161.56L170.546 153.172L163.274 138.268H168.926L173.066 147.556L177.242 138.268H181.778L171.626 161.56H166.766Z" fill="white"/>
</svg>
