<svg width="229" height="42" viewBox="0 0 229 42" fill="none" xmlns="http://www.w3.org/2000/svg">
<ellipse cx="20.781" cy="33.5513" rx="5.58862" ry="6.43538" transform="rotate(0.136833 20.781 33.5513)" fill="#8449BE"/>
<ellipse cx="15.0327" cy="29.4731" rx="5.58862" ry="6.43538" transform="rotate(0.136833 15.0327 29.4731)" fill="#B267FE"/>
<ellipse cx="26.21" cy="29.4998" rx="5.58862" ry="6.43538" transform="rotate(0.136833 26.21 29.4998)" fill="#BD86F3"/>
<ellipse cx="11.657" cy="24.7231" rx="5.58862" ry="6.43538" transform="rotate(0.136833 11.657 24.7231)" fill="#8449BE"/>
<ellipse cx="29.9486" cy="24.0894" rx="5.58862" ry="6.43538" transform="rotate(0.136833 29.9486 24.0894)" fill="#8449BE"/>
<ellipse cx="20.7972" cy="26.7772" rx="5.58862" ry="6.43538" transform="rotate(0.136833 20.7972 26.7772)" fill="#9D46F5"/>
<ellipse cx="32.676" cy="16.6444" rx="5.58862" ry="6.43538" transform="rotate(0.136833 32.676 16.6444)" fill="#BD86F3"/>
<ellipse cx="8.28941" cy="16.5862" rx="5.58862" ry="6.43538" transform="rotate(0.136833 8.28941 16.5862)" fill="#B267FE"/>
<ellipse cx="15.0538" cy="20.6668" rx="5.58862" ry="6.43538" transform="rotate(0.136833 15.0538 20.6668)" fill="#BD86F3"/>
<ellipse cx="16.6071" cy="10.1528" rx="5.58862" ry="6.43538" transform="rotate(0.136833 16.6071 10.1528)" fill="#BD86F3"/>
<ellipse cx="25.8931" cy="20.354" rx="5.58862" ry="6.43538" transform="rotate(0.136833 25.8931 20.354)" fill="#B267FE"/>
<ellipse cx="24.9543" cy="10.1528" rx="5.58862" ry="6.43538" transform="rotate(0.136833 24.9543 10.1528)" fill="#B267FE"/>
<ellipse cx="8.03919" cy="10.0353" rx="5.58862" ry="6.43538" transform="rotate(29.6243 8.03919 10.0353)" fill="#8449BE"/>
<ellipse cx="32.6034" cy="9.17386" rx="5.58862" ry="6.43538" transform="rotate(-33.2501 32.6034 9.17386)" fill="#8449BE"/>
<ellipse cx="28.9584" cy="13.2485" rx="5.58862" ry="6.43538" transform="rotate(-10.7605 28.9584 13.2485)" fill="#9D46F5"/>
<ellipse cx="20.2507" cy="20.373" rx="5.58862" ry="6.43538" transform="rotate(-10.7605 20.2507 20.373)" fill="#9D46F5"/>
<ellipse cx="11.4188" cy="13.1091" rx="5.58862" ry="6.43538" transform="rotate(10.7415 11.4188 13.1091)" fill="#9D46F5"/>
<ellipse cx="20.4884" cy="14.2444" rx="5.58862" ry="6.43538" transform="rotate(0.136833 20.4884 14.2444)" fill="#8449BE"/>
<path d="M66.5655 29.78C66.3055 30.06 65.8955 30.35 65.3355 30.65C64.7755 30.93 64.1255 31.19 63.3855 31.43C62.6655 31.67 61.9255 31.86 61.1655 32C60.4055 32.16 59.6855 32.24 59.0055 32.24C56.6255 32.24 54.5555 31.78 52.7955 30.86C51.0355 29.94 49.6755 28.68 48.7155 27.08C47.7755 25.48 47.3055 23.65 47.3055 21.59C47.3055 19.57 47.6055 17.82 48.2055 16.34C48.8255 14.84 49.6555 13.6 50.6955 12.62C51.7555 11.62 52.9655 10.88 54.3255 10.4C55.7055 9.92 57.1455 9.68 58.6455 9.68C60.0655 9.68 61.3655 9.84 62.5455 10.16C63.7255 10.46 64.7255 10.84 65.5455 11.3L64.1355 15.35C63.7755 15.15 63.2955 14.95 62.6955 14.75C62.0955 14.55 61.4855 14.39 60.8655 14.27C60.2455 14.13 59.6955 14.06 59.2155 14.06C56.8355 14.06 55.0055 14.66 53.7255 15.86C52.4455 17.04 51.8055 18.82 51.8055 21.2C51.8055 22.58 52.1155 23.77 52.7355 24.77C53.3555 25.77 54.2155 26.54 55.3155 27.08C56.4355 27.62 57.7055 27.89 59.1255 27.89C59.7455 27.89 60.3155 27.85 60.8355 27.77C61.3555 27.67 61.7955 27.52 62.1555 27.32V24.65H58.3455V20.45H66.5655V29.78ZM69.797 25.28C69.797 23.94 70.107 22.74 70.727 21.68C71.367 20.62 72.257 19.79 73.397 19.19C74.537 18.57 75.847 18.26 77.327 18.26C78.827 18.26 80.127 18.57 81.227 19.19C82.327 19.79 83.167 20.62 83.747 21.68C84.347 22.74 84.647 23.94 84.647 25.28C84.647 26.62 84.347 27.83 83.747 28.91C83.167 29.97 82.327 30.81 81.227 31.43C80.127 32.05 78.807 32.36 77.267 32.36C75.827 32.36 74.537 32.08 73.397 31.52C72.277 30.96 71.397 30.15 70.757 29.09C70.117 28.03 69.797 26.76 69.797 25.28ZM74.027 25.31C74.027 26.35 74.327 27.22 74.927 27.92C75.527 28.6 76.287 28.94 77.207 28.94C78.187 28.94 78.967 28.6 79.547 27.92C80.127 27.22 80.417 26.35 80.417 25.31C80.417 24.27 80.127 23.41 79.547 22.73C78.967 22.03 78.187 21.68 77.207 21.68C76.287 21.68 75.527 22.03 74.927 22.73C74.327 23.41 74.027 24.27 74.027 25.31ZM86.9357 25.28C86.9357 23.94 87.2457 22.74 87.8657 21.68C88.5057 20.62 89.3957 19.79 90.5357 19.19C91.6757 18.57 92.9857 18.26 94.4657 18.26C95.9657 18.26 97.2657 18.57 98.3657 19.19C99.4657 19.79 100.306 20.62 100.886 21.68C101.486 22.74 101.786 23.94 101.786 25.28C101.786 26.62 101.486 27.83 100.886 28.91C100.306 29.97 99.4657 30.81 98.3657 31.43C97.2657 32.05 95.9457 32.36 94.4057 32.36C92.9657 32.36 91.6757 32.08 90.5357 31.52C89.4157 30.96 88.5357 30.15 87.8957 29.09C87.2557 28.03 86.9357 26.76 86.9357 25.28ZM91.1657 25.31C91.1657 26.35 91.4657 27.22 92.0657 27.92C92.6657 28.6 93.4257 28.94 94.3457 28.94C95.3257 28.94 96.1057 28.6 96.6857 27.92C97.2657 27.22 97.5557 26.35 97.5557 25.31C97.5557 24.27 97.2657 23.41 96.6857 22.73C96.1057 22.03 95.3257 21.68 94.3457 21.68C93.4257 21.68 92.6657 22.03 92.0657 22.73C91.4657 23.41 91.1657 24.27 91.1657 25.31ZM110.434 32.36C109.214 32.36 108.124 32.08 107.164 31.52C106.204 30.94 105.444 30.11 104.884 29.03C104.344 27.95 104.074 26.67 104.074 25.19C104.074 23.71 104.374 22.45 104.974 21.41C105.574 20.37 106.394 19.58 107.434 19.04C108.474 18.5 109.654 18.23 110.974 18.23C111.814 18.23 112.614 18.36 113.374 18.62C114.154 18.88 114.804 19.28 115.324 19.82V8.33H119.494V32H115.294V30.62C114.654 31.12 113.934 31.54 113.134 31.88C112.334 32.2 111.434 32.36 110.434 32.36ZM111.814 28.82C112.654 28.82 113.354 28.66 113.914 28.34C114.474 28 114.934 27.5 115.294 26.84V23.63C115.054 22.99 114.624 22.48 114.004 22.1C113.384 21.72 112.654 21.53 111.814 21.53C111.194 21.53 110.614 21.69 110.074 22.01C109.554 22.31 109.134 22.73 108.814 23.27C108.494 23.81 108.334 24.43 108.334 25.13C108.334 25.83 108.494 26.46 108.814 27.02C109.134 27.58 109.554 28.02 110.074 28.34C110.614 28.66 111.194 28.82 111.814 28.82ZM132.425 32.36C131.425 32.36 130.565 32.21 129.845 31.91C129.145 31.61 128.535 31.2 128.015 30.68V32H123.815V8.33H127.985V19.79C128.505 19.35 129.195 18.98 130.055 18.68C130.915 18.38 131.895 18.23 132.995 18.23C134.135 18.23 135.175 18.5 136.115 19.04C137.055 19.58 137.805 20.37 138.365 21.41C138.945 22.43 139.235 23.68 139.235 25.16C139.235 26.64 138.915 27.92 138.275 29C137.655 30.08 136.825 30.91 135.785 31.49C134.745 32.07 133.625 32.36 132.425 32.36ZM131.495 28.82C132.115 28.82 132.685 28.66 133.205 28.34C133.745 28.02 134.175 27.58 134.495 27.02C134.815 26.46 134.975 25.83 134.975 25.13C134.975 24.43 134.815 23.81 134.495 23.27C134.175 22.73 133.745 22.31 133.205 22.01C132.685 21.69 132.115 21.53 131.495 21.53C130.675 21.53 129.955 21.72 129.335 22.1C128.715 22.48 128.275 22.99 128.015 23.63V26.84C128.735 28.16 129.895 28.82 131.495 28.82ZM148.986 32.36C147.386 32.36 146.026 32.06 144.906 31.46C143.806 30.86 142.966 30.03 142.386 28.97C141.806 27.91 141.516 26.69 141.516 25.31C141.516 23.99 141.856 22.8 142.536 21.74C143.216 20.68 144.126 19.84 145.266 19.22C146.406 18.58 147.676 18.26 149.076 18.26C150.956 18.26 152.496 18.81 153.696 19.91C154.916 20.99 155.706 22.56 156.066 24.62L146.466 27.68C147.106 28.42 147.976 28.79 149.076 28.79C149.536 28.79 149.976 28.71 150.396 28.55C150.836 28.39 151.266 28.18 151.686 27.92L153.546 31.04C152.846 31.44 152.086 31.76 151.266 32C150.466 32.24 149.706 32.36 148.986 32.36ZM145.656 25.07C145.656 25.17 145.656 25.26 145.656 25.34L151.416 23.39C151.236 22.89 150.946 22.46 150.546 22.1C150.146 21.72 149.546 21.53 148.746 21.53C147.806 21.53 147.056 21.85 146.496 22.49C145.936 23.13 145.656 23.99 145.656 25.07ZM162.898 18.89L163.228 21.89C163.608 21.13 164.128 20.48 164.788 19.94C165.448 19.38 166.098 18.96 166.738 18.68C167.378 18.38 167.868 18.23 168.208 18.23L167.998 22.43C167.018 22.31 166.178 22.47 165.478 22.91C164.778 23.35 164.238 23.93 163.858 24.65C163.478 25.37 163.288 26.11 163.288 26.87V32H159.118V18.89H162.898ZM175.203 18.89L175.533 21.89C175.913 21.13 176.433 20.48 177.093 19.94C177.753 19.38 178.403 18.96 179.043 18.68C179.683 18.38 180.173 18.23 180.513 18.23L180.303 22.43C179.323 22.31 178.483 22.47 177.783 22.91C177.083 23.35 176.543 23.93 176.163 24.65C175.783 25.37 175.593 26.11 175.593 26.87V32H171.423V18.89H175.203ZM184.777 38.3L187.927 31.31L181.867 18.89H186.577L190.027 26.63L193.507 18.89H197.287L188.827 38.3H184.777Z" fill="white"/>
</svg>
